<svg width="174" height="174" viewBox="0 0 174 174" fill="none" xmlns="http://www.w3.org/2000/svg">
<g filter="url(#filter0_i_36_40)">
<path d="M80.9794 3.49195C84.7027 1.33245 89.2973 1.33246 93.0206 3.49196L156.021 40.032C159.722 42.1786 162 46.1337 162 50.4123V123.588C162 127.866 159.722 131.821 156.021 133.968L93.0206 170.508C89.2973 172.668 84.7027 172.668 80.9794 170.508L17.9794 133.968C14.2782 131.821 12 127.866 12 123.588V50.4123C12 46.1337 14.2782 42.1786 17.9794 40.032L80.9794 3.49195Z" fill="url(#paint0_linear_36_40)"/>
</g>
<mask id="mask0_36_40" style="mask-type:alpha" maskUnits="userSpaceOnUse" x="12" y="1" width="150" height="172">
<path d="M80.9794 3.49195C84.7027 1.33245 89.2973 1.33246 93.0206 3.49196L156.021 40.032C159.722 42.1787 162 46.1337 162 50.4123V123.588C162 127.866 159.722 131.821 156.021 133.968L93.0206 170.508C89.2973 172.668 84.7027 172.668 80.9794 170.508L17.9794 133.968C14.2782 131.821 12 127.866 12 123.588V50.4123C12 46.1337 14.2782 42.1786 17.9794 40.032L80.9794 3.49195Z" fill="url(#paint1_linear_36_40)"/>
</mask>
<g mask="url(#mask0_36_40)">
<circle cx="18" cy="17.5" r="2" fill="#FDF0CB" fill-opacity="0.64"/>
<circle cx="18" cy="37.5" r="2" fill="#FDF0CB" fill-opacity="0.64"/>
<circle cx="18" cy="57.5" r="2" fill="#FDF0CB" fill-opacity="0.64"/>
<circle cx="18" cy="77.5" r="2" fill="#FDF0CB" fill-opacity="0.64"/>
<circle cx="18" cy="97.5" r="2" fill="#FDF0CB" fill-opacity="0.64"/>
<circle cx="18" cy="117.5" r="2" fill="#FDF0CB" fill-opacity="0.64"/>
<circle cx="18" cy="137.5" r="2" fill="#FDF0CB" fill-opacity="0.64"/>
<circle cx="18" cy="157.5" r="2" fill="#FDF0CB" fill-opacity="0.64"/>
<circle cx="38" cy="17.5" r="2" fill="#FDF0CB" fill-opacity="0.64"/>
<circle cx="38" cy="37.5" r="2" fill="#FDF0CB" fill-opacity="0.64"/>
<circle cx="38" cy="57.5" r="2" fill="#FDF0CB" fill-opacity="0.64"/>
<circle cx="38" cy="77.5" r="2" fill="#FDF0CB" fill-opacity="0.64"/>
<circle cx="38" cy="97.5" r="2" fill="#FDF0CB" fill-opacity="0.64"/>
<circle cx="38" cy="117.5" r="2" fill="#FDF0CB" fill-opacity="0.64"/>
<circle cx="38" cy="137.5" r="2" fill="#FDF0CB" fill-opacity="0.64"/>
<circle cx="38" cy="157.5" r="2" fill="#FDF0CB" fill-opacity="0.64"/>
<circle cx="58" cy="17.5" r="2" fill="#FDF0CB" fill-opacity="0.64"/>
<circle cx="58" cy="37.5" r="2" fill="#FDF0CB" fill-opacity="0.64"/>
<circle cx="58" cy="57.5" r="2" fill="#FDF0CB" fill-opacity="0.64"/>
<circle cx="58" cy="77.5" r="2" fill="#FDF0CB" fill-opacity="0.64"/>
<circle cx="58" cy="97.5" r="2" fill="#FDF0CB" fill-opacity="0.64"/>
<circle cx="58" cy="117.5" r="2" fill="#FDF0CB" fill-opacity="0.64"/>
<circle cx="58" cy="137.5" r="2" fill="#FDF0CB" fill-opacity="0.64"/>
<circle cx="58" cy="157.5" r="2" fill="#FDF0CB" fill-opacity="0.64"/>
<circle cx="78" cy="17.5" r="2" fill="#FDF0CB" fill-opacity="0.64"/>
<circle cx="78" cy="37.5" r="2" fill="#FDF0CB" fill-opacity="0.64"/>
<circle cx="78" cy="57.5" r="2" fill="#FDF0CB" fill-opacity="0.64"/>
<circle cx="78" cy="77.5" r="2" fill="#FDF0CB" fill-opacity="0.64"/>
<circle cx="78" cy="97.5" r="2" fill="#FDF0CB" fill-opacity="0.64"/>
<circle cx="78" cy="117.5" r="2" fill="#FDF0CB" fill-opacity="0.64"/>
<circle cx="78" cy="137.5" r="2" fill="#FDF0CB" fill-opacity="0.64"/>
<circle cx="78" cy="157.5" r="2" fill="#FDF0CB" fill-opacity="0.64"/>
<circle cx="98" cy="17.5" r="2" fill="#FDF0CB" fill-opacity="0.64"/>
<circle cx="98" cy="37.5" r="2" fill="#FDF0CB" fill-opacity="0.64"/>
<circle cx="98" cy="57.5" r="2" fill="#FDF0CB" fill-opacity="0.64"/>
<circle cx="98" cy="77.5" r="2" fill="#FDF0CB" fill-opacity="0.64"/>
<circle cx="98" cy="97.5" r="2" fill="#FDF0CB" fill-opacity="0.64"/>
<circle cx="98" cy="117.5" r="2" fill="#FDF0CB" fill-opacity="0.64"/>
<circle cx="98" cy="137.5" r="2" fill="#FDF0CB" fill-opacity="0.64"/>
<circle cx="98" cy="157.5" r="2" fill="#FDF0CB" fill-opacity="0.64"/>
<circle cx="118" cy="17.5" r="2" fill="#FDF0CB" fill-opacity="0.64"/>
<circle cx="118" cy="37.5" r="2" fill="#FDF0CB" fill-opacity="0.64"/>
<circle cx="118" cy="57.5" r="2" fill="#FDF0CB" fill-opacity="0.64"/>
<circle cx="118" cy="77.5" r="2" fill="#FDF0CB" fill-opacity="0.64"/>
<circle cx="118" cy="97.5" r="2" fill="#FDF0CB" fill-opacity="0.64"/>
<circle cx="118" cy="117.5" r="2" fill="#FDF0CB" fill-opacity="0.64"/>
<circle cx="118" cy="137.5" r="2" fill="#FDF0CB" fill-opacity="0.64"/>
<circle cx="118" cy="157.5" r="2" fill="#FDF0CB" fill-opacity="0.64"/>
<circle cx="138" cy="17.5" r="2" fill="#FDF0CB" fill-opacity="0.64"/>
<circle cx="138" cy="37.5" r="2" fill="#FDF0CB" fill-opacity="0.64"/>
<circle cx="138" cy="57.5" r="2" fill="#FDF0CB" fill-opacity="0.64"/>
<circle cx="138" cy="77.5" r="2" fill="#FDF0CB" fill-opacity="0.64"/>
<circle cx="138" cy="97.5" r="2" fill="#FDF0CB" fill-opacity="0.64"/>
<circle cx="138" cy="117.5" r="2" fill="#FDF0CB" fill-opacity="0.64"/>
<circle cx="138" cy="137.5" r="2" fill="#FDF0CB" fill-opacity="0.64"/>
<circle cx="138" cy="157.5" r="2" fill="#FDF0CB" fill-opacity="0.64"/>
<circle cx="158" cy="17.5" r="2" fill="#FDF0CB" fill-opacity="0.64"/>
<circle cx="158" cy="37.5" r="2" fill="#FDF0CB" fill-opacity="0.64"/>
<circle cx="158" cy="57.5" r="2" fill="#FDF0CB" fill-opacity="0.64"/>
<circle cx="158" cy="77.5" r="2" fill="#FDF0CB" fill-opacity="0.64"/>
<circle cx="158" cy="97.5" r="2" fill="#FDF0CB" fill-opacity="0.64"/>
<circle cx="158" cy="117.5" r="2" fill="#FDF0CB" fill-opacity="0.64"/>
<circle cx="158" cy="137.5" r="2" fill="#FDF0CB" fill-opacity="0.64"/>
<circle cx="158" cy="157.5" r="2" fill="#FDF0CB" fill-opacity="0.64"/>
</g>
<mask id="mask1_36_40" style="mask-type:alpha" maskUnits="userSpaceOnUse" x="12" y="1" width="150" height="172">
<path d="M80.9794 3.49195C84.7027 1.33245 89.2973 1.33246 93.0206 3.49196L156.021 40.032C159.722 42.1787 162 46.1337 162 50.4123V123.588C162 127.866 159.722 131.821 156.021 133.968L93.0206 170.508C89.2973 172.668 84.7027 172.668 80.9794 170.508L17.9794 133.968C14.2782 131.821 12 127.866 12 123.588V50.4123C12 46.1337 14.2782 42.1786 17.9794 40.032L80.9794 3.49195Z" fill="url(#paint2_linear_36_40)"/>
</mask>
<g mask="url(#mask1_36_40)">
<path d="M88.5142 88.826L168.071 42.456C170.719 40.9128 170.719 37.0876 168.071 35.5443L88.5143 -10.826C87.2694 -11.5515 85.7306 -11.5515 84.4857 -10.826L4.92912 35.5443C2.28147 37.0875 2.28146 40.9128 4.92912 42.456L84.4857 88.826C85.7306 89.5515 87.2694 89.5515 88.5142 88.826Z" fill="white" fill-opacity="0.1"/>
</g>
<mask id="mask2_36_40" style="mask-type:alpha" maskUnits="userSpaceOnUse" x="12" y="1" width="150" height="172">
<path d="M80.9794 3.49195C84.7027 1.33245 89.2973 1.33246 93.0206 3.49196L156.021 40.032C159.722 42.1787 162 46.1337 162 50.4123V123.588C162 127.866 159.722 131.821 156.021 133.968L93.0206 170.508C89.2973 172.668 84.7027 172.668 80.9794 170.508L17.9794 133.968C14.2782 131.821 12 127.866 12 123.588V50.4123C12 46.1337 14.2782 42.1786 17.9794 40.032L80.9794 3.49195Z" fill="url(#paint3_linear_36_40)"/>
</mask>
<g mask="url(#mask2_36_40)">
<path d="M168 184H87V89.3379C87.5257 89.2717 88.0416 89.1019 88.5146 88.8262L161.991 46H168V184Z" fill="black" fill-opacity="0.05"/>
</g>
<g filter="url(#filter1_i_36_40)">
<path d="M82.0033 31.4596C85.7145 29.3186 90.2855 29.3186 93.9967 31.4596L133.997 54.5365C137.711 56.6796 140 60.6422 140 64.9308V111.069C140 115.358 137.711 119.32 133.997 121.463L93.9967 144.54C90.2855 146.681 85.7145 146.681 82.0033 144.54L42.0033 121.463C38.2886 119.32 36 115.358 36 111.069V64.9308C36 60.6422 38.2886 56.6796 42.0033 54.5365L82.0033 31.4596Z" fill="#FCAC59"/>
</g>
<path d="M80.0049 27.9951C84.9529 25.1406 91.0471 25.1406 95.9951 27.9951L135.995 51.0723C140.948 53.9297 144 59.2126 144 64.9307V111.069C144 116.787 140.948 122.07 135.995 124.928L95.9951 148.005C91.0471 150.859 84.9529 150.859 80.0049 148.005L40.0049 124.928C35.052 122.07 32 116.787 32 111.069V64.9307C32 59.2126 35.052 53.9297 40.0049 51.0723L80.0049 27.9951Z" stroke="#FDC277" stroke-width="8"/>
<g filter="url(#filter2_i_36_40)">
<path d="M99.3589 46L123.905 59.8751C127.671 62.004 130 65.9954 130 70.3216V101.92M76.6411 46L52.0949 59.8751C48.3287 62.004 46 65.9954 46 70.3216V101.92M55.6145 116.276L79.9036 130M96.0789 130L120.368 116.276" stroke="#5B0000" stroke-opacity="0.32" stroke-width="3" stroke-miterlimit="1" stroke-linecap="round" stroke-dasharray="4 6"/>
</g>
<g filter="url(#filter3_in_36_40)">
<path d="M90.5788 59L91.4834 63.667C92.5695 69.2713 95.7946 74.2327 100.475 77.5003C108.324 82.9789 113 91.9464 113 101.518V103.675C113 106.535 111.473 109.177 108.996 110.606L91.496 120.696C89.0228 122.122 85.9772 122.122 83.504 120.696L66.004 110.606C63.5265 109.177 62 106.535 62 103.675L62 100.377C62 95.4021 63.546 90.5501 66.4242 86.4922L66.7355 86.0533C68.4773 83.5977 69.8638 80.9085 70.854 78.0654L72.8253 72.4055L73.9897 74.0044C75.4843 76.0566 76.2894 78.53 76.2894 81.0687V83.6487L76.8967 83.0889C80.1487 80.0911 82.2907 76.0813 82.9744 71.7115C83.6906 67.1336 86.0061 62.9577 89.5097 59.9253L90.5788 59Z" fill="url(#paint4_linear_36_40)"/>
</g>
<path d="M89.5011 117.344L104.006 108.963C106.671 107.424 106.671 103.576 104.006 102.037L89.5011 93.6562C88.2629 92.9408 86.7371 92.9408 85.4989 93.6562L70.9944 102.037C68.3293 103.576 68.3293 107.424 70.9945 108.963L85.4989 117.344C86.7371 118.059 88.2629 118.059 89.5011 117.344Z" fill="#FED79C"/>
<path d="M88 127C91.3137 127 94 129.686 94 133C94 136.314 91.3137 139 88 139C84.6863 139 82 136.314 82 133C82 129.686 84.6863 127 88 127ZM48 105C51.3137 105 54 107.686 54 111C54 114.314 51.3137 117 48 117C44.6863 117 42 114.314 42 111C42 107.686 44.6863 105 48 105ZM128 105C131.314 105 134 107.686 134 111C134 114.314 131.314 117 128 117C124.686 117 122 114.314 122 111C122 107.686 124.686 105 128 105ZM88 35C91.3137 35 94 37.6863 94 41C94 44.3137 91.3137 47 88 47C84.6863 47 82 44.3137 82 41C82 37.6863 84.6863 35 88 35Z" fill="#5B0000" fill-opacity="0.24"/>
<defs>
<filter id="filter0_i_36_40" x="12" y="1.87231" width="150" height="182.255" filterUnits="userSpaceOnUse" color-interpolation-filters="sRGB">
<feFlood flood-opacity="0" result="BackgroundImageFix"/>
<feBlend mode="normal" in="SourceGraphic" in2="BackgroundImageFix" result="shape"/>
<feColorMatrix in="SourceAlpha" type="matrix" values="0 0 0 0 0 0 0 0 0 0 0 0 0 0 0 0 0 0 127 0" result="hardAlpha"/>
<feOffset dy="12"/>
<feGaussianBlur stdDeviation="16"/>
<feComposite in2="hardAlpha" operator="arithmetic" k2="-1" k3="1"/>
<feColorMatrix type="matrix" values="0 0 0 0 0.992157 0 0 0 0 0.94902 0 0 0 0 0.827451 0 0 0 0.24 0"/>
<feBlend mode="normal" in2="shape" result="effect1_innerShadow_36_40"/>
</filter>
<filter id="filter1_i_36_40" x="26" y="21.8539" width="122" height="134.292" filterUnits="userSpaceOnUse" color-interpolation-filters="sRGB">
<feFlood flood-opacity="0" result="BackgroundImageFix"/>
<feBlend mode="normal" in="SourceGraphic" in2="BackgroundImageFix" result="shape"/>
<feColorMatrix in="SourceAlpha" type="matrix" values="0 0 0 0 0 0 0 0 0 0 0 0 0 0 0 0 0 0 127 0" result="hardAlpha"/>
<feOffset dx="-2" dy="2"/>
<feGaussianBlur stdDeviation="8"/>
<feComposite in2="hardAlpha" operator="arithmetic" k2="-1" k3="1"/>
<feColorMatrix type="matrix" values="0 0 0 0 0.992157 0 0 0 0 0.94902 0 0 0 0 0.827451 0 0 0 0.2 0"/>
<feBlend mode="normal" in2="shape" result="effect1_innerShadow_36_40"/>
</filter>
<filter id="filter2_i_36_40" x="42.5" y="44.4998" width="89" height="89.0005" filterUnits="userSpaceOnUse" color-interpolation-filters="sRGB">
<feFlood flood-opacity="0" result="BackgroundImageFix"/>
<feBlend mode="normal" in="SourceGraphic" in2="BackgroundImageFix" result="shape"/>
<feColorMatrix in="SourceAlpha" type="matrix" values="0 0 0 0 0 0 0 0 0 0 0 0 0 0 0 0 0 0 127 0" result="hardAlpha"/>
<feOffset dx="-2" dy="2"/>
<feGaussianBlur stdDeviation="8"/>
<feComposite in2="hardAlpha" operator="arithmetic" k2="-1" k3="1"/>
<feColorMatrix type="matrix" values="0 0 0 0 0.992157 0 0 0 0 0.94902 0 0 0 0 0.827451 0 0 0 0.2 0"/>
<feBlend mode="normal" in2="shape" result="effect1_innerShadow_36_40"/>
</filter>
<filter id="filter3_in_36_40" x="62" y="59" width="51" height="66.7655" filterUnits="userSpaceOnUse" color-interpolation-filters="sRGB">
<feFlood flood-opacity="0" result="BackgroundImageFix"/>
<feBlend mode="normal" in="SourceGraphic" in2="BackgroundImageFix" result="shape"/>
<feColorMatrix in="SourceAlpha" type="matrix" values="0 0 0 0 0 0 0 0 0 0 0 0 0 0 0 0 0 0 127 0" result="hardAlpha"/>
<feOffset dy="4"/>
<feGaussianBlur stdDeviation="4"/>
<feComposite in2="hardAlpha" operator="arithmetic" k2="-1" k3="1"/>
<feColorMatrix type="matrix" values="0 0 0 0 0.996078 0 0 0 0 0.945098 0 0 0 0 0.811765 0 0 0 1 0"/>
<feBlend mode="normal" in2="shape" result="effect1_innerShadow_36_40"/>
<feTurbulence type="fractalNoise" baseFrequency="2 2" stitchTiles="stitch" numOctaves="3" result="noise" seed="6013" />
<feComponentTransfer in="noise" result="coloredNoise1">
<feFuncR type="linear" slope="2" intercept="-0.5" />
<feFuncG type="linear" slope="2" intercept="-0.5" />
<feFuncB type="linear" slope="2" intercept="-0.5" />
<feFuncA type="discrete" tableValues="1 1 1 1 1 1 1 1 1 1 1 1 1 1 1 1 1 1 1 1 1 1 1 1 1 1 1 1 1 1 1 1 1 1 1 1 1 1 1 1 1 1 1 1 1 1 1 1 1 1 1 0 0 0 0 0 0 0 0 0 0 0 0 0 0 0 0 0 0 0 0 0 0 0 0 0 0 0 0 0 0 0 0 0 0 0 0 0 0 0 0 0 0 0 0 0 0 0 0 0 "/>
</feComponentTransfer>
<feComposite operator="in" in2="effect1_innerShadow_36_40" in="coloredNoise1" result="noise1Clipped" />
<feComponentTransfer in="noise1Clipped" result="color1">
<feFuncA type="table" tableValues="0 0.02" />
</feComponentTransfer>
<feMerge result="effect2_noise_36_40">
<feMergeNode in="effect1_innerShadow_36_40" />
<feMergeNode in="color1" />
</feMerge>
</filter>
<linearGradient id="paint0_linear_36_40" x1="87" y1="0" x2="87" y2="87.4971" gradientUnits="userSpaceOnUse">
<stop stop-color="#F4A471"/>
<stop offset="1" stop-color="#EF7E40"/>
</linearGradient>
<linearGradient id="paint1_linear_36_40" x1="87.4967" y1="19.3886" x2="87.4967" y2="166.046" gradientUnits="userSpaceOnUse">
<stop stop-color="white"/>
<stop offset="0.645249" stop-color="white" stop-opacity="0"/>
</linearGradient>
<linearGradient id="paint2_linear_36_40" x1="87" y1="0" x2="87" y2="87.4971" gradientUnits="userSpaceOnUse">
<stop stop-color="#F4A471"/>
<stop offset="1" stop-color="#EF7E40"/>
</linearGradient>
<linearGradient id="paint3_linear_36_40" x1="87" y1="0" x2="87" y2="87.4971" gradientUnits="userSpaceOnUse">
<stop stop-color="#F4A471"/>
<stop offset="1" stop-color="#EF7E40"/>
</linearGradient>
<linearGradient id="paint4_linear_36_40" x1="89.0635" y1="104.233" x2="82.5827" y2="63.7868" gradientUnits="userSpaceOnUse">
<stop stop-color="#FFF0C5"/>
<stop offset="1" stop-color="#FEF5DD"/>
</linearGradient>
</defs>
</svg>
